<svg id="visual" viewBox="0 0 960 300" width="960" height="300" xmlns="http://www.w3.org/2000/svg" xmlns:xlink="http://www.w3.org/1999/xlink" version="1.1"><rect x="0" y="0" width="960" height="300" fill="#001220"></rect><path d="M0 86L22.8 86.7C45.7 87.3 91.3 88.7 137 87.2C182.7 85.7 228.3 81.3 274 86.5C319.7 91.7 365.3 106.3 411.2 108.5C457 110.7 503 100.3 548.8 95.7C594.7 91 640.3 92 686 95C731.7 98 777.3 103 823 101.5C868.7 100 914.3 92 937.2 88L960 84L960 0L937.2 0C914.3 0 868.7 0 823 0C777.3 0 731.7 0 686 0C640.3 0 594.7 0 548.8 0C503 0 457 0 411.2 0C365.3 0 319.7 0 274 0C228.3 0 182.7 0 137 0C91.3 0 45.7 0 22.8 0L0 0Z" fill="#fa7268"></path><path d="M0 95L22.8 90.2C45.7 85.3 91.3 75.7 137 75.3C182.7 75 228.3 84 274 85.2C319.7 86.3 365.3 79.7 411.2 78.8C457 78 503 83 548.8 85.7C594.7 88.3 640.3 88.7 686 83.8C731.7 79 777.3 69 823 68.7C868.7 68.3 914.3 77.7 937.2 82.3L960 87L960 0L937.2 0C914.3 0 868.7 0 823 0C777.3 0 731.7 0 686 0C640.3 0 594.7 0 548.8 0C503 0 457 0 411.2 0C365.3 0 319.7 0 274 0C228.3 0 182.7 0 137 0C91.3 0 45.7 0 22.8 0L0 0Z" fill="#ef5f67"></path><path d="M0 66L22.8 66.8C45.7 67.7 91.3 69.3 137 66.8C182.7 64.3 228.3 57.7 274 58C319.7 58.3 365.3 65.7 411.2 64.7C457 63.7 503 54.3 548.8 51C594.7 47.7 640.3 50.3 686 54.8C731.7 59.3 777.3 65.7 823 66.2C868.7 66.7 914.3 61.3 937.2 58.7L960 56L960 0L937.2 0C914.3 0 868.7 0 823 0C777.3 0 731.7 0 686 0C640.3 0 594.7 0 548.8 0C503 0 457 0 411.2 0C365.3 0 319.7 0 274 0C228.3 0 182.7 0 137 0C91.3 0 45.7 0 22.8 0L0 0Z" fill="#e34c67"></path><path d="M0 57L22.8 52.8C45.7 48.7 91.3 40.3 137 40.3C182.7 40.3 228.3 48.7 274 52.2C319.7 55.7 365.3 54.3 411.2 50.8C457 47.3 503 41.7 548.8 37.7C594.7 33.7 640.3 31.3 686 31.7C731.7 32 777.3 35 823 34.8C868.7 34.7 914.3 31.3 937.2 29.7L960 28L960 0L937.2 0C914.3 0 868.7 0 823 0C777.3 0 731.7 0 686 0C640.3 0 594.7 0 548.8 0C503 0 457 0 411.2 0C365.3 0 319.7 0 274 0C228.3 0 182.7 0 137 0C91.3 0 45.7 0 22.8 0L0 0Z" fill="#d53867"></path><path d="M0 32L22.8 30.2C45.7 28.3 91.3 24.7 137 23.7C182.7 22.7 228.3 24.3 274 23.7C319.7 23 365.3 20 411.2 20.2C457 20.3 503 23.7 548.8 23.8C594.7 24 640.3 21 686 22.5C731.7 24 777.3 30 823 30.5C868.7 31 914.3 26 937.2 23.5L960 21L960 0L937.2 0C914.3 0 868.7 0 823 0C777.3 0 731.7 0 686 0C640.3 0 594.7 0 548.8 0C503 0 457 0 411.2 0C365.3 0 319.7 0 274 0C228.3 0 182.7 0 137 0C91.3 0 45.7 0 22.8 0L0 0Z" fill="#c62368"></path></svg>